<?xml version="1.0" encoding="UTF-8" standalone="no"?>
<svg width="128px" height="39px" viewBox="0 0 128 39" version="1.1" xmlns="http://www.w3.org/2000/svg" xmlns:xlink="http://www.w3.org/1999/xlink">
    <defs></defs>
    <g id="Welcome" stroke="none" stroke-width="1" fill="none" fill-rule="evenodd">
        <g id="Desktop-Copy-2" transform="translate(-39.000000, -2548.000000)" fill="#F0F0F0">
            <g id="Footer" transform="translate(0.000000, 2517.000000)">
                <g id="Soso-logo" transform="translate(39.000000, 31.000000)">
                    <path d="M43.9951674,2.73019024 C34.8046494,2.73019024 27.3275823,10.2181902 27.3275823,19.4223805 C27.3275823,28.6265707 34.8046494,36.1145707 43.9951674,36.1145707 C53.1854955,36.1145707 60.6619927,28.6265707 60.6619927,19.4223805 C60.6619927,10.2181902 53.1854955,2.73019024 43.9951674,2.73019024 M43.9951674,38.844761 C33.3014855,38.844761 24.6014476,30.1317805 24.6014476,19.4223805 C24.6014476,8.71279024 33.3014855,0 43.9951674,0 C54.6888493,0 63.3881274,8.71279024 63.3881274,19.4223805 C63.3881274,30.1317805 54.6888493,38.844761 43.9951674,38.844761" id="Fill-1"></path>
                    <path d="M43.9947875,7.88945268 C37.6449508,7.88945268 32.479143,13.0631356 32.479143,19.4226088 C32.479143,25.7817015 37.6449508,30.9555746 43.9947875,30.9555746 C50.3450041,30.9555746 55.5110018,25.7817015 55.5110018,19.4226088 C55.5110018,13.0631356 50.3450041,7.88945268 43.9947875,7.88945268 M43.9947875,33.6857649 C36.141787,33.6857649 29.7530083,27.2872917 29.7530083,19.4226088 C29.7530083,11.5577356 36.141787,5.15926244 43.9947875,5.15926244 C51.8481679,5.15926244 58.2369466,11.5577356 58.2369466,19.4226088 C58.2369466,27.2872917 51.8481679,33.6857649 43.9947875,33.6857649" id="Fill-3"></path>
                    <path d="M108.475644,7.88945268 C102.125617,7.88945268 96.9596194,13.0631356 96.9596194,19.4226088 C96.9596194,25.7817015 102.125617,30.9555746 108.475644,30.9555746 C114.82529,30.9555746 119.991668,25.7817015 119.991668,19.4226088 C119.991668,13.0631356 114.82529,7.88945268 108.475644,7.88945268 M108.475644,33.6857649 C100.622263,33.6857649 94.2332947,27.2872917 94.2332947,19.4226088 C94.2332947,11.5577356 100.622263,5.15926244 108.475644,5.15926244 C116.328644,5.15926244 122.717613,11.5577356 122.717613,19.4226088 C122.717613,27.2872917 116.328644,33.6857649 108.475644,33.6857649" id="Fill-8"></path>
                    <path d="M108.475644,2.73019024 C99.2851257,2.73019024 91.8080587,10.2181902 91.8080587,19.4223805 C91.8080587,28.6265707 99.2851257,36.1145707 108.475644,36.1145707 C117.666162,36.1145707 125.142849,28.6265707 125.142849,19.4223805 C125.142849,10.2181902 117.666162,2.73019024 108.475644,2.73019024 M108.475644,38.844761 C97.7821519,38.844761 89.0821139,30.1317805 89.0821139,19.4223805 C89.0821139,8.71279024 97.7821519,0 108.475644,0 C119.169136,0 127.869174,8.71279024 127.869174,19.4223805 C127.869174,30.1317805 119.169136,38.844761 108.475644,38.844761" id="Fill-5"></path>
                    <path d="M11.6655619,33.6857078 C8.07377351,33.6857078 5.15159871,30.7588054 5.15159871,27.1611029 L7.87754348,27.1611029 C7.87754348,29.2532151 9.57693734,30.9555176 11.6655619,30.9555176 C13.5484584,30.9555176 15.4545302,29.8469663 15.4545302,27.7287907 C15.4545302,25.4348298 13.054559,24.1326102 10.9636549,23.2544444 C10.7039778,23.1454346 10.4013694,23.0272932 10.0510808,22.8903176 C6.7884953,21.6160639 3.79922617e-05,18.9640639 3.79922617e-05,11.6834298 C3.79922617e-05,5.24101024 5.23347203,-1.902439e-05 11.6659418,-1.902439e-05 C18.0987916,-1.902439e-05 23.3322256,5.24101024 23.3322256,11.6834298 L20.6060909,11.6834298 C20.6060909,6.74641024 16.5956278,2.72998098 11.6659418,2.72998098 C6.73663586,2.72998098 2.72598276,6.74641024 2.72598276,11.6834298 C2.72598276,17.098342 7.93168245,19.131859 11.041729,20.3469468 C11.3937273,20.4843029 11.7265395,20.6144298 12.0177502,20.7367566 C13.5421897,21.3767371 18.1806649,23.3250249 18.1806649,27.7287907 C18.1806649,31.1246444 15.3796854,33.6857078 11.6655619,33.6857078" id="Fill-10"></path>
                    <path d="M11.6661128,38.8449512 C5.23345303,38.8449512 1.89961302e-05,33.6035415 1.89961302e-05,27.1615024 L2.72596377,27.1615024 C2.72596377,32.0983317 6.73661687,36.114761 11.6661128,36.114761 C16.5956088,36.114761 20.6062619,32.0983317 20.6062619,27.1615024 C20.6062619,21.7462098 15.4005622,19.7130732 12.2903257,18.4979854 C11.9383274,18.360439 11.6055152,18.2305024 11.3141145,18.1081756 C9.78986497,17.4680049 5.15157971,15.5199073 5.15157971,11.1159512 C5.15157971,7.72009756 7.95236924,5.15922439 11.6664927,5.15922439 C15.2582811,5.15922439 18.1806459,8.08612683 18.1806459,11.6838293 L15.4545112,11.6838293 C15.4545112,9.59133659 13.7551173,7.88922439 11.6664927,7.88922439 C9.78359625,7.88922439 7.87771444,8.99758537 7.87771444,11.1159512 C7.87771444,13.4101024 10.2774956,14.7121317 12.3683998,15.5904878 C12.6280769,15.6994976 12.9306852,15.8178293 13.2811639,15.9546146 C16.5435594,17.2290585 23.3322066,19.8808683 23.3322066,27.1615024 C23.3322066,33.6035415 18.0987726,38.8449512 11.6661128,38.8449512" id="Fill-13"></path>
                    <path d="M76.1630968,38.8449512 C69.730437,38.8449512 64.496813,33.6035415 64.496813,27.1615024 L67.2227578,27.1615024 C67.2227578,32.0983317 71.2336009,36.114761 76.1630968,36.114761 C81.0924028,36.114761 85.1032459,32.0983317 85.1032459,27.1615024 C85.1032459,21.7462098 79.8977361,19.7130732 76.7874996,18.4979854 C76.4355013,18.360439 76.1026891,18.2305024 75.8110985,18.1081756 C74.2872289,17.4680049 69.6481838,15.5199073 69.6481838,11.1159512 C69.6481838,7.72009756 72.4491633,5.15922439 76.1634767,5.15922439 C79.7552652,5.15922439 82.6778199,8.08612683 82.6778199,11.6838293 L79.9518751,11.6838293 C79.9518751,9.59133659 78.2522913,7.88922439 76.1634767,7.88922439 C74.2805803,7.88922439 72.3746985,8.99758537 72.3746985,11.1159512 C72.3746985,13.4101024 74.7744797,14.7121317 76.8653838,15.5904878 C77.1252508,15.6994976 77.4278592,15.8178293 77.7781479,15.9546146 C81.0409233,17.2290585 87.8290007,19.8808683 87.8290007,27.1615024 C87.8290007,33.6035415 82.5957566,38.8449512 76.1630968,38.8449512" id="Fill-15"></path>
                    <path d="M76.1627169,33.6857078 C72.5709285,33.6857078 69.6481838,30.7588054 69.6481838,27.1611029 L72.3746985,27.1611029 C72.3746985,29.2532151 74.0739024,30.9555176 76.1627169,30.9555176 C78.0456134,30.9555176 79.9518751,29.8469663 79.9518751,27.7287907 C79.9518751,25.4348298 77.551714,24.1326102 75.4608099,23.2544444 C75.2011328,23.1454346 74.8983344,23.0272932 74.5480458,22.8903176 C71.2856503,21.6160639 64.496813,18.9640639 64.496813,11.6834298 C64.496813,5.24101024 69.7300571,-1.902439e-05 76.1627169,-1.902439e-05 C82.5957566,-1.902439e-05 87.8290007,5.24101024 87.8290007,11.6834298 L85.1030559,11.6834298 C85.1030559,6.74641024 81.0924028,2.72998098 76.1627169,2.72998098 C71.2336009,2.72998098 67.2227578,6.74641024 67.2227578,11.6834298 C67.2227578,17.098342 72.4284575,19.131859 75.538694,20.3469468 C75.8906923,20.4843029 76.2238844,20.6144298 76.5150951,20.7367566 C78.0393447,21.3767371 82.6778199,23.3250249 82.6778199,27.7287907 C82.6778199,31.1246444 79.8770304,33.6857078 76.1627169,33.6857078" id="Fill-17"></path>
                </g>
            </g>
        </g>
    </g>
</svg>